<svg width="295" height="326" viewBox="0 0 295 326" fill="none" xmlns="http://www.w3.org/2000/svg">
<path opacity="0.5" d="M153 2.00003C126.182 -4.26156 105.333 13.6667 85.9998 24C66.6665 34.3334 21.3332 51 20.9999 79C20.6666 107 15.9999 181 15.9999 181C15.9999 181 -8.56354 226.323 4.99986 250C15.787 268.83 35.2155 265.564 52.9999 278C75.9109 294.022 79.2863 321.317 107 325C129.526 327.994 162 306 162 306L213 269C213 269 261.595 264.189 280 243C300.756 219.104 293 163 293 163C293 163 278.378 115.318 259 91C240.831 68.2001 225 75 201 44C177 13 177.255 7.66328 153 2.00003Z" fill="#EBEBF7"/>
</svg>
